<svg xmlns="http://www.w3.org/2000/svg" version="1.1" xmlns:xlink="http://www.w3.org/1999/xlink" xmlns:svgjs="http://svgjs.dev/svgjs" width="100%" height="100%" viewBox="0 0 1000 600"><rect width="1000" height="600" x="0" y="0" fill="#f7f7f7"/><g><circle r="166.66666666666666" cx="306.5911356608073" cy="328.8133494705173" fill="#006838" transform="matrix(0.8933392356148064,0,0,0.8933392356148064,0,6.25814516815565)"/><path d="M310.02457193204856 286.98892275211153Q303.1576606541544 286.98892275211153 298.34792532870966 282.20816173585615Q293.5671643124543 277.39842641041133 293.5671643124543 270.5025408233278L293.5671643124543 270.5025408233278Q293.5671643124543 263.6356295454337 298.34792532870966 258.7389712924206Q303.1576606541544 253.8133387302181 310.02457193204856 253.8133387302181L310.02457193204856 253.8133387302181Q316.92045751913207 253.8133387302181 321.8171157721452 258.7389712924206Q326.7137740251583 263.6356295454337 326.7137740251583 270.5025408233278L326.7137740251583 270.5025408233278Q326.7137740251583 277.39842641041133 321.8171157721452 282.20816173585615Q316.92045751913207 286.98892275211153 310.02457193204856 286.98892275211153L310.02457193204856 286.98892275211153ZM295.8561347384189 403.8133374038795Q285.8310237588774 403.8133374038795 279.6884702107189 397.55488661896334Q273.51694235337106 391.2964358340472 273.51694235337106 378.77953426421493L273.51694235337106 378.77953426421493Q273.51694235337106 373.56415861011817 275.1974522863578 365.2195575635633L275.1974522863578 365.2195575635633L289.39486378917684 298.2599290267985L319.41224810942276 298.2599290267985L304.4035559492998 369.18903792251473Q303.5633009828064 372.3182633149728 303.5633009828064 375.8531290360828L303.5633009828064 375.8531290360828Q303.5633009828064 380.02542955936025 305.56252831687686 381.8218367291047Q307.53278134175787 383.5892695896597 312.11072219368725 383.5892695896597L312.11072219368725 383.5892695896597Q318.16635281427745 383.5892695896597 323.3817284683742 378.46081686313124Q328.59710412247097 373.36133844579217 330.8860745484357 365.2195575635633L330.8860745484357 365.2195575635633L339.6652902328319 365.2195575635633Q331.92914967925503 387.7615701129372 319.8468627472642 395.78745375840833Q307.73560150608387 403.8133374038795 295.8561347384189 403.8133374038795L295.8561347384189 403.8133374038795Z " fill="#f7f7f7" transform="matrix(0.8933392356148064,0,0,0.8933392356148064,0,6.25814516815565)"/><path d="M593.0987449056814 286.98892275211153Q586.2318336277873 286.98892275211153 581.4220983023425 282.20816173585615Q576.6413372860872 277.39842641041133 576.6413372860872 270.5025408233278L576.6413372860872 270.5025408233278Q576.6413372860872 263.6356295454337 581.4220983023425 258.7389712924206Q586.2318336277873 253.8133387302181 593.0987449056814 253.8133387302181L593.0987449056814 253.8133387302181Q599.9946304927649 253.8133387302181 604.8912887457781 258.7389712924206Q609.7879469987911 263.6356295454337 609.7879469987911 270.5025408233278L609.7879469987911 270.5025408233278Q609.7879469987911 277.39842641041133 604.8912887457781 282.20816173585615Q599.9946304927649 286.98892275211153 593.0987449056814 286.98892275211153L593.0987449056814 286.98892275211153ZM578.9303077120518 403.8133374038795Q568.9051967325103 403.8133374038795 562.7626431843518 397.55488661896334Q556.5911153270039 391.2964358340472 556.5911153270039 378.77953426421493L556.5911153270039 378.77953426421493Q556.5911153270039 373.56415861011817 558.2716252599906 365.2195575635633L558.2716252599906 365.2195575635633L572.4690367628097 298.2599290267985L602.4864210830556 298.2599290267985L587.4777289229327 369.18903792251473Q586.6374739564393 372.3182633149728 586.6374739564393 375.8531290360828L586.6374739564393 375.8531290360828Q586.6374739564393 380.02542955936025 588.6367012905097 381.8218367291047Q590.6069543153907 383.5892695896597 595.1848951673202 383.5892695896597L595.1848951673202 383.5892695896597Q601.2405257879103 383.5892695896597 606.4559014420071 378.46081686313124Q611.6712770961038 373.36133844579217 613.9602475220685 365.2195575635633L613.9602475220685 365.2195575635633L622.7394632064648 365.2195575635633Q615.003322652888 387.7615701129372 602.9210357208971 395.78745375840833Q590.8097744797167 403.8133374038795 578.9303077120518 403.8133374038795L578.9303077120518 403.8133374038795ZM643.8037859871779 403.8133374038795Q628.3604791892136 403.8133374038795 619.8130579783327 395.78745375840833Q611.2656367674518 387.7615701129372 611.2656367674518 370.63775338198604L611.2656367674518 370.63775338198604Q611.2656367674518 356.26649602403046 617.0025499869583 338.93985912875337Q622.7394632064648 321.6132222334763 635.3432877038654 309.0093977360757Q647.9760865104553 296.37659892948574 667.3888736673711 296.37659892948574L667.3888736673711 296.37659892948574Q679.9057752372034 296.37659892948574 685.2080738188685 301.7947947479085Q690.539346709723 307.2419648755207 690.539346709723 315.5865659220756L690.539346709723 315.5865659220756Q690.539346709723 322.8880918378111 687.410121317265 326.8285978875731Q684.2808959248068 330.7980782465245 679.471160599362 330.7980782465245L679.471160599362 330.7980782465245Q675.9362948782519 330.7980782465245 672.1696346836266 328.30628765623385L672.1696346836266 328.30628765623385Q674.6903995831066 321.4104020691503 674.6903995831066 315.9922062507275L674.6903995831066 315.9922062507275Q674.6903995831066 312.0227258917761 673.2127098144459 309.7337554658114Q671.7639943549746 307.4447850398467 668.8375891268424 307.4447850398467L668.8375891268424 307.4447850398467Q662.5791383419263 307.4447850398467 656.3206875570102 317.6727161837143Q650.062236772094 327.8716730183924 646.0927564131426 342.47472484986343Q642.1232760541911 357.0777766813344 642.1232760541911 368.7833975938628L642.1232760541911 368.7833975938628Q642.1232760541911 378.98235442854093 645.6871160844906 382.6331173864087Q649.2219818056006 386.28388034427644 657.1609425235035 386.28388034427644L657.1609425235035 386.28388034427644Q668.4319487981905 386.28388034427644 676.4578324436617 381.0685046901796Q684.4837160891328 375.8531290360828 694.074212430833 365.2195575635633L694.074212430833 365.2195575635633L701.1729181822425 365.2195575635633Q678.0224451398907 403.8133374038795 643.8037859871779 403.8133374038795L643.8037859871779 403.8133374038795ZM724.5262113889204 403.4076970752275Q709.1118789001454 403.4076970752275 700.1298430514231 395.46873635732464Q691.147807202701 387.5587499486112 691.147807202701 370.43493321766005L691.147807202701 370.43493321766005Q691.147807202701 356.26649602403046 697.0006176589651 338.93985912875337Q702.8534281152292 321.6132222334763 715.7759700137135 309.0093977360757Q728.6985119121978 296.37659892948574 748.3141192334396 296.37659892948574L748.3141192334396 296.37659892948574Q775.0284323060908 296.37659892948574 775.0284323060908 329.75500311570516L775.0284323060908 329.75500311570516L775.0284323060908 329.9578232800311Q775.6368927990688 330.18961775354654 777.3174027320555 330.18961775354654L777.3174027320555 330.18961775354654Q784.2132883191391 330.18961775354654 793.1663498586719 326.53885479567884Q802.1483857073941 322.8880918378111 809.4499116231297 317.6727161837143L809.4499116231297 317.6727161837143L811.3332417204424 323.29373216646303Q805.2776110998522 329.75500311570516 795.5712175213943 334.2460210400663Q785.8648239429364 338.73703896442737 774.3909975039235 340.6203690617401L774.3909975039235 340.6203690617401Q772.7394618801261 359.5985415808145 765.8435762930427 373.7669787744441Q758.9476907059592 387.96439027726313 748.1112990691136 395.6715565216506Q737.274907432268 403.4076970752275 724.5262113889204 403.4076970752275L724.5262113889204 403.4076970752275ZM732.8708124354752 384.63234472047907Q737.883367925246 384.63234472047907 742.8959234150168 378.8954315009726Q747.9084789047876 373.1585182814662 751.6461647902236 363.2493045386823Q755.4128249848491 353.3400907958984 757.0933349178358 341.22882955471806L757.0933349178358 341.22882955471806Q751.4433446258977 339.98293425957274 751.4433446258977 332.47858817951123L751.4433446258977 332.47858817951123Q751.4433446258977 323.9311669686304 757.9046155751397 321.20758190482434L757.9046155751397 321.20758190482434Q757.4989752464878 314.31169631774077 755.8184653135011 311.7040084906924Q754.1669296897037 309.096320663644 749.9946291664263 309.096320663644L749.9946291664263 309.096320663644Q743.0987435793428 309.096320663644 736.6374726301007 319.1214316431856Q730.1762016808585 329.1465426227272 726.2067213219071 343.1121596520308Q722.2372409629556 357.0777766813344 722.2372409629556 367.7403224630434L722.2372409629556 367.7403224630434Q722.2372409629556 377.73645913339556 724.5262113889204 381.1844019269373Q726.8441561240744 384.63234472047907 732.8708124354752 384.63234472047907L732.8708124354752 384.63234472047907ZM860.96623336193 403.8133374038795Q848.2465116277718 403.8133374038795 842.3067782439394 397.0333490535537Q836.367044860107 390.2533607032278 836.367044860107 380.2572240328757L836.367044860107 380.2572240328757Q836.367044860107 375.8531290360828 837.4101199909263 370.3480102900918Q838.4531951217456 364.8139172349113 839.5831931801332 359.5985415808145Q840.7421655477103 354.38316592671777 841.1478058763622 352.905476158057L841.1478058763622 352.905476158057Q842.828315809349 345.6039502423215 844.2770312688203 338.5342188001014Q845.7547210374811 331.4355130486919 845.7547210374811 327.0603923610885L845.7547210374811 327.0603923610885Q845.7547210374811 316.3978465793795 838.2214006482303 316.3978465793795L838.2214006482303 316.3978465793795Q832.8032048298074 316.3978465793795 828.63090430653 321.72911947023397Q824.4586037832527 327.0603923610885 821.9668131929619 335.60781357196936L821.9668131929619 335.60781357196936L807.7694016901429 402.5674421087341L777.7230430607075 402.5674421087341L799.8594152814294 298.2599290267985L829.8767996016753 298.2599290267985L827.5878291757107 309.096320663644Q838.0185804839042 297.4196740603051 852.0131718223972 297.4196740603051L852.0131718223972 297.4196740603051Q862.6467432949169 297.4196740603051 868.905194079833 303.27248451656925Q875.1636448647491 309.096320663644 875.1636448647491 321.00476174049834L875.1636448647491 321.00476174049834Q875.1636448647491 327.0603923610885 873.6859550960884 334.44884120439224Q872.2372396366171 341.8662643568855 869.5136545728109 352.499835829405L869.5136545728109 352.499835829405Q867.8621189490135 358.96110677864715 866.5003264171106 365.13263463599503Q865.1385338852075 371.2751881841534 865.1385338852075 374.8100539052635L865.1385338852075 374.8100539052635Q865.1385338852075 378.98235442854093 867.0218639825202 381.300299163695Q868.905194079833 383.5892695896597 873.4831349317624 383.5892695896597L873.4831349317624 383.5892695896597Q879.7415857166785 383.5892695896597 883.508245911304 379.0982516652986Q887.24593179674 374.6072337409375 891.0125919913654 365.2195575635633L891.0125919913654 365.2195575635633L899.7628333665722 365.2195575635633Q892.0556671221849 388.16721044158913 881.9436332150749 395.99027392273433Q871.831599307965 403.8133374038795 860.96623336193 403.8133374038795L860.96623336193 403.8133374038795ZM914.8004998358846 403.8133374038795Q904.775388856343 403.8133374038795 897.9084775784489 399.9597542816857Q891.0125919913654 396.106171159492 887.6805464345813 389.9346433021442Q884.3485008777974 383.7920897539857 884.3485008777974 377.1279986404176L884.3485008777974 377.1279986404176Q884.3485008777974 370.2321130533341 887.5646491978238 365.13263463599503Q890.8097718270395 360.0041819094665 895.3877126789688 357.7152114835018L895.3877126789688 357.7152114835018Q903.5294935611977 343.1121596520308 909.5851241817878 328.1903904194761Q915.6407548023781 313.26862118692145 921.0589506208008 295.9709586008338L921.0589506208008 295.9709586008338L951.9165899075401 291.79865807755635Q952.9596650383595 318.4839968410182 955.4804299378396 349.57343060127295L955.4804299378396 349.57343060127295Q956.5235050686589 362.0903321711052 956.5235050686589 367.7403224630434L956.5235050686589 367.7403224630434Q956.5235050686589 372.5210834792988 955.6832501021655 375.65030887175686L955.6832501021655 375.65030887175686Q965.4765666081918 370.02929288900805 970.6919422622885 365.2195575635633L970.6919422622885 365.2195575635633L979.4711579466848 365.2195575635633Q966.114001410359 380.6628643615277 947.5414692199366 391.2964358340472L947.5414692199366 391.2964358340472Q941.4858385993465 397.75770678328934 932.619699987382 400.8000092481791Q923.7535613754175 403.8133374038795 914.8004998358846 403.8133374038795L914.8004998358846 403.8133374038795ZM908.1074344131271 387.32695547509576Q915.8435749667041 387.32695547509576 921.0589506208008 382.7490146231663Q926.2743262748976 378.17107377123693 926.2743262748976 367.9431426273694L926.2743262748976 367.9431426273694Q926.2743262748976 361.6846918424533 925.0284309797522 350.4136855677663L925.0284309797522 350.4136855677663Q922.9422807181135 326.6257777232471 922.3048459159462 318.4839968410182L922.3048459159462 318.4839968410182Q917.2922904261753 334.9703787698019 905.4128236585105 357.9180316478278L905.4128236585105 357.9180316478278Q910.1935846747658 360.4387965473079 910.1935846747658 365.2195575635633L910.1935846747658 365.2195575635633Q910.1935846747658 369.18903792251473 907.5858968477174 372.3182633149728Q904.9782090206689 375.44748870743086 901.037702970907 375.44748870743086L901.037702970907 375.44748870743086Q896.6336079741142 375.44748870743086 895.3877126789688 372.7239036436248L895.3877126789688 372.7239036436248Q895.3877126789688 380.2572240328757 898.4300151438587 383.7920897539857Q901.4433432995589 387.32695547509576 908.1074344131271 387.32695547509576L908.1074344131271 387.32695547509576Z " fill="#006838" transform="matrix(0.8933392356148064,0,0,0.8933392356148064,0,6.25814516815565)"/></g></svg>